<?xml version="1.0" encoding="utf-8"?>
<!-- Generator: Adobe Illustrator 25.2.1, SVG Export Plug-In . SVG Version: 6.00 Build 0)  -->
<svg version="1.1" id="Layer_1" xmlns="http://www.w3.org/2000/svg" xmlns:xlink="http://www.w3.org/1999/xlink" x="0px" y="0px"
	 viewBox="0 0 303 77" style="enable-background:new 0 0 303 77;" xml:space="preserve">
<style type="text/css">
	.st0{fill-rule:evenodd;clip-rule:evenodd;fill:#F38B00;}
</style>
<g id="Layer_2_1_">
	<g id="Layer_1-2">
		<path class="st0" d="M3.6,0h69.8c1.9-0.1,3.4,1.4,3.5,3.3c0,0.1,0,0.2,0,0.2v70c0.1,1.8-1.4,3.4-3.2,3.5c-0.1,0-0.2,0-0.3,0H3.5
			C1.6,77,0,75.5,0,73.5c0,0,0,0,0,0V3.6C-0.1,1.7,1.3,0.1,3.2,0C3.3,0,3.5,0,3.6,0z M12,40.3l12.5-12.2h30v10.4l-26,0.1
			c-0.2,0-26,25.5-28.5,28h64.3c1,0.1,1.9-0.6,2.1-1.6c0-0.2,0-0.4,0-0.5V12.5c0-1.6-0.8-2.1-2-2.1H12.2c-0.9,0-1.7,0.7-1.7,1.6
			c0,0.1,0,0.1,0,0.2v27.5c0,0.5,0.4,0.9,0.9,0.9C11.6,40.6,11.8,40.5,12,40.3L12,40.3z M13.9,27.4c-0.3,0.3-0.5,0.8-0.5,1.3
			c0,0.5,0.2,0.9,0.5,1.2c0.3,0.3,0.8,0.5,1.2,0.5c1,0,1.7-0.8,1.8-1.8c0-0.5-0.2-0.9-0.5-1.3c-0.3-0.3-0.8-0.5-1.2-0.5
			C14.7,26.9,14.2,27.1,13.9,27.4z M91.4,40c0-20,15-36.4,36.3-36.4c13,0,20.8,4.5,27.5,11l-7.9,9.2c-5.6-5.3-11.7-8.8-19.7-8.8
			c-13.5,0-23.2,11-23.2,25c0,13.8,9.8,25,23.2,25c8.7,0,14.2-3.5,20.2-9.2l7.9,8c-7.3,7.6-15.4,12.5-28.6,12.5
			C106.7,76.4,91.4,60.4,91.4,40z M186,16.3h-22.3V4.8h57.1v11.5h-22.3v58.9H186V16.3z M233.9,4.8H247l21.4,33.3l21.4-33.3H303v70.4
			h-12.4V24.7l-22.2,33.2H268l-22-33v50.3h-12.1V4.8z"/>
	</g>
</g>
</svg>
